# xmcd CD database file
#
# Track frame offsets:
#	150
#	26459
#	40387
#	51616
#	65270
#	79159
#	94474
#	107441
#	117886
#	132805
#	150097
#	180015
#	195188
#	209878
#	228233
#	251146
#	264195
#	277581
#	292876
#
# Disc length: 4129 seconds
#
# Revision: 0
# Processed by: cddbd v1.5PL3 Copyright (c) Steve Scherf et al.
# Submitted via: CDex 1.50beta10
#
DISCID=f5101f13
DTITLE=Louis Armstrong - the best of Decca years
DYEAR=2004
DGENRE=Jazz
TTITLE0=on the sunny side of the street
TTITLE1=that lucky old sun
TTITLE2=gone fishin'
TTITLE3=a kiss to build a dream on
TTITLE4=you rascal you
TTITLE5=la vie en rose
TTITLE6=blueberry hill
TTITLE7=in the shade of the old apple tree
TTITLE8=the gypsy
TTITLE9=lazy river
TTITLE10=I surrender dear
TTITLE11=it's all in the game
TTITLE12=when it's sleepy time down south
TTITLE13=19_NANCY WILSON DUET WITH PEABO BRYSON-LOVING YOU
TTITLE14=20_STAN GETZ-PARA MACHUCHAR MEU CORACAO
TTITLE15=Charlie Parker-in a soulful mood-QUASIMADO
TTITLE16=Charlie Parker-in a soulful mood-CRAZEOLOGY
TTITLE17=Charlie Parker-in a soulful mood-HOW DEEP IS THE OCEAN
TTITLE18=Rosemarry Clooney-Always
EXTD=YEAR: 2004
EXTT0=
EXTT1=
EXTT2=
EXTT3=
EXTT4=
EXTT5=
EXTT6=
EXTT7=
EXTT8=
EXTT9=
EXTT10=
EXTT11=
EXTT12=
EXTT13=
EXTT14=
EXTT15=
EXTT16=
EXTT17=
EXTT18=
PLAYORDER=
